<svg xmlns='http://www.w3.org/2000/svg' xmlns:xlink='http://www.w3.org/1999/xlink' width='150' height='150' viewBox='0 0 150 150'><defs><clipPath id='clip-Custom_Size_2'><rect width='150' height='150'/></clipPath></defs><g id='Custom_Size_2' data-name='Custom Size – 2' clip-path='url(#clip-Custom_Size_2)'><rect width='150' height='150' fill='#fff'/><g id='icons8_zapier' transform='translate(44.238 41.5)'><path d="M38.407,37.625C40.282,37.627,42.118,37.811,43.899,38.155V38.155V52.273L53.762,42.478C54.851,43.287,55.854,44.195,56.758,45.095C57.663,45.996,58.504,46.934,59.266,47.911L59.266,47.911L49.401,57.708L63.589,57.708C63.809,59.034,63.927,60.386,63.927,61.764L63.927,61.764L63.927,61.797C63.927,63.175,63.809,64.53,63.589,65.856L63.589,65.856L49.398,65.856L59.266,75.649C58.504,76.626,57.663,77.564,56.761,78.465L56.761,78.465L56.758,78.465C55.854,79.366,54.851,80.273,53.765,81.079L53.765,81.079L43.899,71.284L43.899,85.402C42.12,85.747,40.284,85.931,38.409,85.934L38.409,85.934L38.374,85.934C36.498,85.931,34.665,85.747,32.882,85.402L32.882,85.402L32.882,71.284L23.017,81.079C20.513,79.4,18.347,77.452,16.544,75.649L16.544,75.649L26.409,65.856L12.222,65.856C11.999,64.528,11.882,63.167,11.882,61.789L11.882,61.789L11.882,61.709C11.885,61.372,11.915,60.901,11.956,60.405L11.965,60.267C12.064,58.944,12.222,57.708,12.222,57.708L12.222,57.708L26.409,57.708L16.544,47.911C17.306,46.934,18.143,45.999,19.045,45.1L19.045,45.1L19.05,45.095C19.951,44.195,20.954,43.287,23.017,42.478L23.017,42.478L32.882,52.273L32.882,38.155C34.665,37.811,36.5,37.627,38.376,37.625L38.376,37.625L38.407,37.625Z" transform="translate(-7 -18)" fill="#FF4A00"/>
<ellipse cx="12" cy="12" rx="12" ry="12" transform="translate(19.762 30)" fill="#FF4A00"/>
</g></g></svg>